<svg xmlns="http://www.w3.org/2000/svg" viewBox="0 0 451.4 116.68"><defs><style>.cls-1{fill:#038dff;}.cls-2{fill:#062c96;}.cls-3{font-size:98.25px;fill:#2e3192;font-family:MyriadPro-Bold, Myriad Pro;font-weight:700;}.cls-4{letter-spacing:0em;}.cls-5{letter-spacing:-0.01em;}.cls-6{font-family:MyriadPro-Regular, Myriad Pro;font-weight:400;}</style></defs><title>mexd</title><g id="Layer_2" data-name="Layer 2"><g id="Layer_1-2" data-name="Layer 1"><circle class="cls-1" cx="83.25" cy="52.38" r="2.93"/><circle class="cls-2" cx="83.25" cy="13.03" r="4.55"/><path class="cls-2" d="M35.66,116.68c-.44-.52-.87-1.07-1.28-1.62-18.47-24.64-4.23-66.51,31.8-93.5s80.21-28.9,98.67-4.25c.41.55.81,1.11,1.19,1.69C146.88-3.93,103.88-1.52,68.66,24.87S19,91.85,35.66,116.68Z"/><path class="cls-2" d="M131.59,115.55c.44-.53.86-1.07,1.27-1.63,18.15-24.88,3.39-66.56-33-93.1s-80.56-27.89-98.72-3c-.4.56-.8,1.12-1.17,1.7C18.88-3.66,61.9-1.78,97.45,24.16S147.9,90.51,131.59,115.55Z"/><path class="cls-1" d="M85.26,116.68c-.45-.08-.9-.18-1.35-.28-20-4.52-28.37-24.52-18.79-44.67S98.64,38.92,118.6,43.44c.45.1.89.21,1.33.33C100.25,40.1,77.16,52.64,67.8,72.34S66.26,111.58,85.26,116.68Z"/><path class="cls-1" d="M85.19,116.68c.45-.1.9-.2,1.34-.32,19.66-5.1,26.85-25.33,16-45.18s-35.5-31.8-55.16-26.7c-.44.11-.88.23-1.3.36,19.43-4.24,43.26,7.62,53.82,27S103.87,111,85.19,116.68Z"/><text class="cls-3" transform="translate(200.87 89.33)"><tspan class="cls-4">M</tspan><tspan class="cls-5" x="83.41" y="0">e</tspan><tspan x="134.11" y="0">x</tspan><tspan class="cls-6" x="185.1" y="0">D</tspan></text><circle class="cls-1" cx="83.25" cy="52.38" r="2.93"/><circle class="cls-2" cx="83.25" cy="13.03" r="4.55"/><path class="cls-2" d="M35.66,116.68c-.44-.52-.87-1.07-1.28-1.62-18.47-24.64-4.23-66.51,31.8-93.5s80.21-28.9,98.67-4.25c.41.55.81,1.11,1.19,1.69C146.88-3.93,103.88-1.52,68.66,24.87S19,91.85,35.66,116.68Z"/><path class="cls-2" d="M131.59,115.55c.44-.53.86-1.07,1.27-1.63,18.15-24.88,3.39-66.56-33-93.1s-80.56-27.89-98.72-3c-.4.56-.8,1.12-1.17,1.7C18.88-3.66,61.9-1.78,97.45,24.16S147.9,90.51,131.59,115.55Z"/><path class="cls-1" d="M85.26,116.68c-.45-.08-.9-.18-1.35-.28-20-4.52-28.37-24.52-18.79-44.67S98.64,38.92,118.6,43.44c.45.1.89.21,1.33.33C100.25,40.1,77.16,52.64,67.8,72.34S66.26,111.58,85.26,116.68Z"/><path class="cls-1" d="M85.19,116.68c.45-.1.9-.2,1.34-.32,19.66-5.1,26.85-25.33,16-45.18s-35.5-31.8-55.16-26.7c-.44.11-.88.23-1.3.36,19.43-4.24,43.26,7.62,53.82,27S103.87,111,85.19,116.68Z"/><text class="cls-3" transform="translate(200.87 89.33)"><tspan class="cls-4">M</tspan><tspan class="cls-5" x="83.41" y="0">e</tspan><tspan x="134.11" y="0">x</tspan><tspan class="cls-6" x="185.1" y="0">D</tspan></text></g></g></svg>